# xmcd
#
# Track frame offsets:
#	150
#	17656
#	27690
#	44138
#	59309
#	77183
#	93371
#	110791
#	125888
#	139481
#	154710
#	165504
#	179021
#	179480
#	184141
#	186669
#	187714
#	189365
#	192812
#	195132
#	200924
#	203847
#	208154
#	211388
#	214381
#	215938
#	223209
#
# Disc length: 2980
#
# Revision: 1
# Processed by: cddbd v1.5.1PL0 Copyright (c) Steve Scherf et al.
# Submitted via: VisiTrax 2.9.5.180 - For more info visit www.synapsa.com
# Normalized: r0:DSETVAR1
#
DISCID=bf0ba21b
DTITLE=Various Artist - CDX 262 March 2001
DYEAR=2001
DGENRE=
TTITLE0=Blake Shelton - Austin
TTITLE1=Tractors - Can't get nowhere
TTITLE2=Carolyn Dawn Johnson - Complicated
TTITLE3=Billy Ray Cyrus - Crazy 'bout you baby
TTITLE4=Tim McGraw - Grown men don't cry
TTITLE5=3 of Hearts - Love is enough
TTITLE6=Darryl Worley - Second wind
TTITLE7=Cndi Thompson - What I really meant to say
TTITLE8=Van Morrison and Linda Gail Lewis - you win again
TTITLE9=Teresa Street - Naturally
TTITLE10=Melyssa Connatser - Is it a go
TTITLE11=John Sines Jr. - The black # 3 (A tribute to Dale Earnhardt)
TTITLE12=Tracy Byrd - Interview
TTITLE13=Tracy Byrd - Interview
TTITLE14=Tracy Byrd - Interview
TTITLE15=Tracy Byrd - Interview
TTITLE16=Tracy Byrd - Interview
TTITLE17=Tracy Byrd - Interview
TTITLE18=Tracy Byrd - Interview
TTITLE19=Tracy Byrd - Interview
TTITLE20=Tracy Byrd - Interview
TTITLE21=Tracy Byrd - Interview
TTITLE22=Tracy Byrd - Interview
TTITLE23=Tracy Byrd - Interview
TTITLE24=Tracy Byrd - Interview
TTITLE25=Tracy Byrd - Interview
TTITLE26=Tracy Byrd - Interview
EXTD=
EXTT0=
EXTT1=
EXTT2=
EXTT3=
EXTT4=
EXTT5=
EXTT6=
EXTT7=
EXTT8=
EXTT9=
EXTT10=
EXTT11=
EXTT12=
EXTT13=
EXTT14=
EXTT15=
EXTT16=
EXTT17=
EXTT18=
EXTT19=
EXTT20=
EXTT21=
EXTT22=
EXTT23=
EXTT24=
EXTT25=
EXTT26=
PLAYORDER=
